<svg width="1106" height="683" viewBox="0 0 1106 683" fill="none" xmlns="http://www.w3.org/2000/svg">
<g id="animation">
<rect id="Rectangle 1" y="673.785" width="1106" height="8.71134" fill="#282828"/>
<rect id="Rectangle 1_2" y="604.094" width="1013" height="8.71134" fill="#282828"/>
<rect id="Rectangle 1_3" x="569" y="73.6701" width="600.115" height="9" transform="rotate(90 569 73.6701)" fill="#282828"/>
<rect id="Rectangle 1_4" width="811.998" height="8.79452" transform="matrix(0.853382 0.521286 -0.546166 0.837677 292.803 73.6701)" fill="#282828"/>
<rect id="Rectangle 1_5" width="811.998" height="8.79452" transform="matrix(0.853382 0.521286 -0.546166 0.837677 320.803 0.107666)" fill="#282828"/>
<rect id="Rectangle 1_6" x="670" y="162.719" width="511.065" height="9" transform="rotate(90 670 162.719)" fill="#282828"/>
<rect id="Rectangle 2" y="606.03" width="418" height="72.5945" fill="#282828"/>
<rect id="Rectangle 3" x="75" y="238.218" width="365.876" height="75" transform="rotate(90 75 238.218)" fill="#282828"/>
<path id="Rectangle 5" d="M336.678 19.2752C352.454 41.9392 346.493 72.5404 323.363 87.6248L30.629 278.533C13.6621 289.598 -9.47368 285.09 -21.0462 268.465V268.465C-32.6186 251.84 -28.2456 229.393 -11.2787 218.328L323.336 0.107675L336.678 19.2752Z" fill="#282828"/>
<rect id="Rectangle 4" x="418" y="243.057" width="365.876" height="75" transform="rotate(90 418 243.057)" fill="#282828"/>
</g>
</svg>
